<svg width="16" height="18" viewBox="0 0 16 18" fill="none" xmlns="http://www.w3.org/2000/svg">
<path fill-rule="evenodd" clip-rule="evenodd" d="M3.99425 2.33184C4.20046 0.990305 5.35374 0 6.70985 0H9.27588C10.632 0 11.7853 0.990306 11.9915 2.33184L12.0942 2.99996H13.4834H14.9866L14.9866 3H15.9857V4.5H14.8701L14.036 15.2326C13.9147 16.7945 12.613 18 11.0477 18H4.93798C3.37275 18 2.07106 16.7945 1.94969 15.2326L1.11567 4.5H0V3H0.999111L0.999108 2.99996H2.5023H3.89155L3.99425 2.33184ZM10.5779 2.99996H5.40785L5.47548 2.55993C5.56921 1.95014 6.09343 1.5 6.70985 1.5H9.27588C9.89229 1.5 10.4165 1.95014 10.5102 2.55993L10.5779 2.99996ZM2.61886 4.5L3.44384 15.1163C3.50452 15.8972 4.15537 16.5 4.93798 16.5H11.0477C11.8304 16.5 12.4812 15.8972 12.5419 15.1163L13.3669 4.5L2.61886 4.5Z" fill="#A5A8AD"/>
</svg>
